<svg width="475" height="952" viewBox="0 0 475 952" fill="none" xmlns="http://www.w3.org/2000/svg">
<path d="M-1 0C-263.752 0 -477 213.248 -477 476C-477 738.752 -263.752 952 -1 952C261.752 952 475 738.752 475 476C475 213.248 261.752 0 -1 0ZM-23.4643 39.4643C-23.1965 39.4508 -22.9227 39.4774 -22.6548 39.4643L-20.631 71.7441C-48.0856 73.053 -74.8072 77.0568 -100.571 83.5834L-92.5774 115.054C-160.204 132.183 -220.44 167.797 -267.637 216.244L-290.81 193.577C-309.656 212.912 -326.506 234.151 -341.202 256.923L-368.321 239.012C-294.254 124.491 -168.091 46.8033 -23.4643 39.4643ZM20.6548 39.4643C165.618 46.5556 292.117 124.278 366.321 239.012L339.202 256.923C324.539 234.209 307.705 212.973 288.911 193.679L265.738 216.244C218.533 167.771 158.228 132.189 90.5774 115.054L98.5714 83.5834C72.8072 77.0568 46.0856 73.053 18.631 71.7441L20.6548 39.4643ZM-1 182.143C12.7619 182.111 26.5239 182.952 37.8572 184.571L20.1489 331.905C57.3712 337.333 90.0063 356.814 112.536 384.827L230.726 296.185C245.083 314.069 261.358 342.126 269.887 363.375L134.089 421.458C140.915 438.322 144.714 456.698 144.714 476C144.714 494.595 141.257 512.364 134.899 528.72L269.583 586.298C261.273 607.673 245.167 635.68 231.03 653.69L113.649 565.857C91.1494 594.511 58.1405 614.52 20.4524 620.095L37.8572 765C15.1905 768.491 -17.1905 768.44 -39.8571 765.202L-22.4524 620.095C-60.1677 614.516 -93.1483 594.443 -115.649 565.756L-232.726 653.589C-247.082 635.705 -263.358 607.648 -271.887 586.399L-136.899 528.619C-143.236 512.287 -146.714 494.562 -146.714 476C-146.714 456.665 -142.937 438.245 -136.089 421.357L-271.583 363.476C-263.273 342.101 -247.167 314.094 -233.03 296.083L-114.536 384.827C-92.0063 356.814 -59.3712 337.333 -22.1488 331.905L-39.8571 184.774C-28.5238 183.029 -14.7619 182.174 -1 182.143ZM-389.976 276.452L-360.833 290.821C-373.125 314.651 -383.174 339.809 -390.583 366.107L-359.417 374.911C-368.477 407.065 -373.381 440.961 -373.381 476C-373.381 511.073 -368.494 545.008 -359.417 577.19L-390.583 585.994C-383.18 612.25 -373.11 637.386 -360.833 661.179L-389.976 675.548C-420.755 615.712 -438.143 547.877 -438.143 476C-438.143 404.123 -420.755 336.288 -389.976 276.452ZM387.976 276.452C418.755 336.288 436.143 404.123 436.143 476C436.143 547.877 418.755 615.712 387.976 675.548L358.833 661.179C371.115 637.379 381.177 612.258 388.583 585.994L357.417 577.19C366.494 545.008 371.381 511.073 371.381 476C371.381 440.961 366.477 407.065 357.417 374.911L388.583 366.107C381.177 339.817 371.12 314.645 358.833 290.821L387.976 276.452ZM-341.202 695.077C-326.5 717.848 -309.657 739.087 -290.81 758.423L-267.637 735.756C-220.44 784.203 -160.204 819.817 -92.5774 836.946L-100.571 868.417C-74.8072 874.943 -48.0856 878.947 -20.631 880.256L-22.6548 912.536C-167.618 905.444 -294.117 827.721 -368.321 712.988L-341.202 695.077ZM339.304 695.077L366.321 712.988C292.117 827.721 165.618 905.444 20.6548 912.536L18.631 880.256C46.0856 878.947 72.8072 874.943 98.5714 868.417L90.5774 836.946C158.228 819.811 218.533 784.229 265.738 735.756L288.911 758.321C307.728 739.003 324.622 717.822 339.304 695.077Z" fill="#C90303" fill-opacity="0.15"/>
</svg>
