<svg width="624" height="426" viewBox="0 0 624 426" fill="none" xmlns="http://www.w3.org/2000/svg">
<circle cx="488" cy="164" r="64" stroke="#CE0404" stroke-width="32"/>
<g style="mix-blend-mode:screen">
<path fill-rule="evenodd" clip-rule="evenodd" d="M503.719 167C503.904 166.028 504 165.025 504 164C504 162.975 503.904 161.972 503.719 161H567.945C567.981 161.995 568 162.996 568 164C568 165.004 567.981 166.005 567.945 167H503.719ZM472.281 167C472.096 166.028 472 165.025 472 164C472 162.975 472.096 161.972 472.281 161H408.055C408.019 161.995 408 162.996 408 164C408 165.004 408.019 166.005 408.055 167H472.281ZM408.302 171H473.608C474.776 173.396 476.525 175.457 478.671 177H409.051C408.728 175.023 408.477 173.022 408.302 171ZM502.392 171H567.698C567.523 173.022 567.272 175.023 566.949 177H497.329C499.475 175.457 501.224 173.396 502.392 171ZM567.698 157H502.392C501.224 154.604 499.475 152.543 497.329 151H566.949C567.272 152.977 567.523 154.978 567.698 157ZM408.302 157H473.608C474.776 154.604 476.525 152.543 478.671 151H409.051C408.728 152.977 408.477 154.978 408.302 157ZM409.81 181C410.249 183.03 410.765 185.031 411.356 187H564.644C565.235 185.031 565.751 183.03 566.19 181H409.81ZM415.102 197C414.214 195.041 413.402 193.04 412.671 191H563.329C562.598 193.04 561.786 195.041 560.898 197H415.102ZM417.052 201C418.125 203.054 419.285 205.056 420.527 207H555.473C556.715 205.056 557.875 203.054 558.948 201H417.052ZM415.102 131C414.214 132.959 413.402 134.96 412.671 137H563.329C562.598 134.96 561.786 132.959 560.898 131H415.102ZM564.644 141H411.356C410.765 142.969 410.249 144.97 409.81 147H566.19C565.751 144.97 565.235 142.969 564.644 141ZM417.052 127C418.125 124.946 419.285 122.944 420.527 121H555.473C556.715 122.944 557.875 124.946 558.948 127H417.052ZM431.866 107C434.024 104.875 436.302 102.871 438.689 101H537.311C539.698 102.871 541.976 104.875 544.134 107H431.866ZM428.074 111H547.926C549.626 112.92 551.234 114.922 552.745 117H423.255C424.766 114.922 426.374 112.92 428.074 111ZM520.774 91C524.596 92.7182 528.257 94.7276 531.732 97H444.268C447.743 94.7276 451.404 92.7182 455.226 91H520.774ZM431.866 221C434.024 223.125 436.302 225.129 438.689 227H537.311C539.698 225.129 541.976 223.125 544.134 221H431.866ZM455.226 237C451.404 235.282 447.743 233.272 444.268 231H531.732C528.257 233.272 524.596 235.282 520.774 237H455.226ZM428.074 217C426.374 215.08 424.766 213.078 423.255 211H552.745C551.234 213.078 549.626 215.08 547.926 217H428.074ZM488 244C480.451 244 473.146 242.954 466.222 241H509.778C502.854 242.954 495.549 244 488 244ZM466.222 87H509.778C502.854 85.0456 495.549 84 488 84C480.451 84 473.146 85.0456 466.222 87Z" fill="#D30505"/>
</g>
<g style="mix-blend-mode:screen">
<circle cx="104" cy="164" r="78.5" stroke="#CE0404" stroke-width="3"/>
<circle cx="104" cy="164" r="78.5" stroke="white" stroke-opacity="0.1" stroke-width="3"/>
</g>
<g style="mix-blend-mode:screen">
<circle cx="168" cy="164" r="78.5" stroke="#CE0404" stroke-width="3"/>
<circle cx="168" cy="164" r="78.5" stroke="white" stroke-opacity="0.2" stroke-width="3"/>
</g>
<g style="mix-blend-mode:screen">
<circle cx="232" cy="164" r="78.5" stroke="#CE0404" stroke-width="3"/>
<circle cx="232" cy="164" r="78.5" stroke="white" stroke-opacity="0.3" stroke-width="3"/>
</g>
<g style="mix-blend-mode:screen">
<circle cx="296" cy="164" r="78.5" stroke="#CE0404" stroke-width="3"/>
<circle cx="296" cy="164" r="78.5" stroke="white" stroke-opacity="0.4" stroke-width="3"/>
</g>
<g style="mix-blend-mode:screen">
<circle cx="360" cy="164" r="78.5" stroke="#CE0404" stroke-width="3"/>
<circle cx="360" cy="164" r="78.5" stroke="white" stroke-opacity="0.5" stroke-width="3"/>
</g>
<g style="mix-blend-mode:screen">
<circle cx="424" cy="164" r="78.5" stroke="#CE0404" stroke-width="3"/>
<circle cx="424" cy="164" r="78.5" stroke="white" stroke-opacity="0.6" stroke-width="3"/>
</g>
<g style="mix-blend-mode:screen" opacity="0.8" filter="url(#filter0_f_2_1612)">
<circle cx="488" cy="153" r="64" stroke="#CE0404" stroke-width="32"/>
<g style="mix-blend-mode:screen">
<path fill-rule="evenodd" clip-rule="evenodd" d="M503.719 156C503.904 155.028 504 154.025 504 153C504 151.975 503.904 150.972 503.719 150H567.945C567.981 150.995 568 151.996 568 153C568 154.004 567.981 155.005 567.945 156H503.719ZM472.281 156C472.096 155.028 472 154.025 472 153C472 151.975 472.096 150.972 472.281 150H408.055C408.019 150.995 408 151.996 408 153C408 154.004 408.019 155.005 408.055 156H472.281ZM408.302 160H473.608C474.776 162.396 476.525 164.457 478.671 166H409.051C408.728 164.023 408.477 162.022 408.302 160ZM502.392 160H567.698C567.523 162.022 567.272 164.023 566.949 166H497.329C499.475 164.457 501.224 162.396 502.392 160ZM567.698 146H502.392C501.224 143.604 499.475 141.543 497.329 140H566.949C567.272 141.977 567.523 143.978 567.698 146ZM408.302 146H473.608C474.776 143.604 476.525 141.543 478.671 140H409.051C408.728 141.977 408.477 143.978 408.302 146ZM409.81 170C410.249 172.03 410.765 174.031 411.356 176H564.644C565.235 174.031 565.751 172.03 566.19 170H409.81ZM415.102 186C414.214 184.041 413.402 182.04 412.671 180H563.329C562.598 182.04 561.786 184.041 560.898 186H415.102ZM417.052 190C418.125 192.054 419.285 194.056 420.527 196H555.473C556.715 194.056 557.875 192.054 558.948 190H417.052ZM415.102 120C414.214 121.959 413.402 123.96 412.671 126H563.329C562.598 123.96 561.786 121.959 560.898 120H415.102ZM564.644 130H411.356C410.765 131.969 410.249 133.97 409.81 136H566.19C565.751 133.97 565.235 131.969 564.644 130ZM417.052 116C418.125 113.946 419.285 111.944 420.527 110H555.473C556.715 111.944 557.875 113.946 558.948 116H417.052ZM431.866 96C434.024 93.8747 436.302 91.871 438.689 90H537.311C539.698 91.871 541.976 93.8747 544.134 96H431.866ZM428.074 100H547.926C549.626 101.92 551.234 103.922 552.745 106H423.255C424.766 103.922 426.374 101.92 428.074 100ZM520.774 80C524.596 81.7182 528.257 83.7276 531.732 86H444.268C447.743 83.7276 451.404 81.7182 455.226 80H520.774ZM431.866 210C434.024 212.125 436.302 214.129 438.689 216H537.311C539.698 214.129 541.976 212.125 544.134 210H431.866ZM455.226 226C451.404 224.282 447.743 222.272 444.268 220H531.732C528.257 222.272 524.596 224.282 520.774 226H455.226ZM428.074 206C426.374 204.08 424.766 202.078 423.255 200H552.745C551.234 202.078 549.626 204.08 547.926 206H428.074ZM488 233C480.451 233 473.146 231.954 466.222 230H509.778C502.854 231.954 495.549 233 488 233ZM466.222 76H509.778C502.854 74.0456 495.549 73 488 73C480.451 73 473.146 74.0456 466.222 76Z" fill="#D30505"/>
</g>
<g style="mix-blend-mode:screen">
<circle cx="104" cy="153" r="78.5" stroke="#CE0404" stroke-width="3"/>
<circle cx="104" cy="153" r="78.5" stroke="white" stroke-opacity="0.1" stroke-width="3"/>
</g>
<g style="mix-blend-mode:screen">
<circle cx="168" cy="153" r="78.5" stroke="#CE0404" stroke-width="3"/>
<circle cx="168" cy="153" r="78.5" stroke="white" stroke-opacity="0.2" stroke-width="3"/>
</g>
<g style="mix-blend-mode:screen">
<circle cx="232" cy="153" r="78.5" stroke="#CE0404" stroke-width="3"/>
<circle cx="232" cy="153" r="78.5" stroke="white" stroke-opacity="0.3" stroke-width="3"/>
</g>
<g style="mix-blend-mode:screen">
<circle cx="296" cy="153" r="78.5" stroke="#CE0404" stroke-width="3"/>
<circle cx="296" cy="153" r="78.5" stroke="white" stroke-opacity="0.4" stroke-width="3"/>
</g>
<g style="mix-blend-mode:screen">
<circle cx="360" cy="153" r="78.5" stroke="#CE0404" stroke-width="3"/>
<circle cx="360" cy="153" r="78.5" stroke="white" stroke-opacity="0.5" stroke-width="3"/>
</g>
<g style="mix-blend-mode:screen">
<circle cx="424" cy="153" r="78.5" stroke="#CE0404" stroke-width="3"/>
<circle cx="424" cy="153" r="78.5" stroke="white" stroke-opacity="0.6" stroke-width="3"/>
</g>
</g>
<g filter="url(#filter1_ddd_2_1612)">
<path d="M26.2 379.6L31.5333 375.6C32.6 374.8 32.6 373.2 31.5333 372.4L26.2 368.4C24.8815 367.411 23 368.352 23 370V374V378C23 379.648 24.8815 380.589 26.2 379.6Z" stroke="#C90303" stroke-width="2"/>
</g>
<g filter="url(#filter2_ddd_2_1612)">
<path d="M74.2 379.6L79.5333 375.6C80.6 374.8 80.6 373.2 79.5333 372.4L74.2 368.4C72.8815 367.411 71 368.352 71 370V374V378C71 379.648 72.8815 380.589 74.2 379.6Z" stroke="#C90303" stroke-width="2"/>
</g>
<g filter="url(#filter3_d_2_1612)">
<path d="M531.933 374.8L526.6 378.8C525.941 379.294 525 378.824 525 378V374V370C525 369.176 525.941 368.706 526.6 369.2L531.933 373.2C532.467 373.6 532.467 374.4 531.933 374.8Z" fill="url(#paint0_linear_2_1612)"/>
<path d="M527.2 379.6L532.533 375.6C533.6 374.8 533.6 373.2 532.533 372.4L527.2 368.4C525.882 367.411 524 368.352 524 370V374V378C524 379.648 525.882 380.589 527.2 379.6Z" stroke="#C90303" stroke-width="2"/>
</g>
<g filter="url(#filter4_d_2_1612)">
<path d="M550.067 373.2L555.4 369.2C556.059 368.706 557 369.176 557 370L557 374L557 378C557 378.824 556.059 379.294 555.4 378.8L550.067 374.8C549.533 374.4 549.533 373.6 550.067 373.2Z" fill="url(#paint1_linear_2_1612)"/>
<path d="M554.8 368.4L549.467 372.4C548.4 373.2 548.4 374.8 549.467 375.6L554.8 379.6C556.118 380.589 558 379.648 558 378L558 374L558 370C558 368.352 556.118 367.411 554.8 368.4Z" stroke="#C90303" stroke-width="2"/>
</g>
<g filter="url(#filter5_d_2_1612)">
<path d="M322 256L326.708 266.594C327.002 267.255 326.518 268 325.795 268L322 268L318.205 268C317.482 268 316.998 267.255 317.292 266.594L322 256ZM322 256L314 256M322 256L330 256" stroke="#BE2425" stroke-width="2" stroke-linecap="round"/>
</g>
<g filter="url(#filter6_d_2_1612)">
<rect x="296" y="260" width="2" height="32" rx="1" fill="url(#paint2_linear_2_1612)"/>
<rect x="295" y="259" width="4" height="34" rx="2" stroke="#C90303" stroke-width="2"/>
</g>
<g filter="url(#filter7_d_2_1612)">
<rect x="540" y="260" width="2" height="32" rx="1" fill="url(#paint3_linear_2_1612)"/>
<rect x="539" y="259" width="4" height="34" rx="2" stroke="#C90303" stroke-width="2"/>
</g>
<g filter="url(#filter8_d_2_1612)">
<rect x="404" y="268" width="2" height="16" rx="1" fill="url(#paint4_linear_2_1612)"/>
<rect x="403" y="267" width="4" height="18" rx="2" stroke="#C90303" stroke-width="2"/>
</g>
<g filter="url(#filter9_d_2_1612)">
<rect x="566" y="268" width="2" height="16" rx="1" fill="url(#paint5_linear_2_1612)"/>
<rect x="565" y="267" width="4" height="18" rx="2" stroke="#C90303" stroke-width="2"/>
</g>
<defs>
<filter id="filter0_f_2_1612" x="10" y="59" width="572" height="188" filterUnits="userSpaceOnUse" color-interpolation-filters="sRGB">
<feFlood flood-opacity="0" result="BackgroundImageFix"/>
<feBlend mode="normal" in="SourceGraphic" in2="BackgroundImageFix" result="shape"/>
<feGaussianBlur stdDeviation="7" result="effect1_foregroundBlur_2_1612"/>
</filter>
<filter id="filter1_ddd_2_1612" x="14" y="358.995" width="27.3333" height="30.011" filterUnits="userSpaceOnUse" color-interpolation-filters="sRGB">
<feFlood flood-opacity="0" result="BackgroundImageFix"/>
<feColorMatrix in="SourceAlpha" type="matrix" values="0 0 0 0 0 0 0 0 0 0 0 0 0 0 0 0 0 0 127 0" result="hardAlpha"/>
<feOffset/>
<feGaussianBlur stdDeviation="4"/>
<feColorMatrix type="matrix" values="0 0 0 0 0.788235 0 0 0 0 0.0117647 0 0 0 0 0.0117647 0 0 0 1 0"/>
<feBlend mode="normal" in2="BackgroundImageFix" result="effect1_dropShadow_2_1612"/>
<feColorMatrix in="SourceAlpha" type="matrix" values="0 0 0 0 0 0 0 0 0 0 0 0 0 0 0 0 0 0 127 0" result="hardAlpha"/>
<feOffset/>
<feGaussianBlur stdDeviation="4"/>
<feColorMatrix type="matrix" values="0 0 0 0 0.788235 0 0 0 0 0.0117647 0 0 0 0 0.0117647 0 0 0 0.25 0"/>
<feBlend mode="normal" in2="effect1_dropShadow_2_1612" result="effect2_dropShadow_2_1612"/>
<feColorMatrix in="SourceAlpha" type="matrix" values="0 0 0 0 0 0 0 0 0 0 0 0 0 0 0 0 0 0 127 0" result="hardAlpha"/>
<feOffset/>
<feGaussianBlur stdDeviation="2"/>
<feColorMatrix type="matrix" values="0 0 0 0 0.788235 0 0 0 0 0.0117647 0 0 0 0 0.0117647 0 0 0 0.25 0"/>
<feBlend mode="normal" in2="effect2_dropShadow_2_1612" result="effect3_dropShadow_2_1612"/>
<feBlend mode="normal" in="SourceGraphic" in2="effect3_dropShadow_2_1612" result="shape"/>
</filter>
<filter id="filter2_ddd_2_1612" x="62" y="358.995" width="27.3333" height="30.011" filterUnits="userSpaceOnUse" color-interpolation-filters="sRGB">
<feFlood flood-opacity="0" result="BackgroundImageFix"/>
<feColorMatrix in="SourceAlpha" type="matrix" values="0 0 0 0 0 0 0 0 0 0 0 0 0 0 0 0 0 0 127 0" result="hardAlpha"/>
<feOffset/>
<feGaussianBlur stdDeviation="4"/>
<feColorMatrix type="matrix" values="0 0 0 0 0.788235 0 0 0 0 0.0117647 0 0 0 0 0.0117647 0 0 0 1 0"/>
<feBlend mode="normal" in2="BackgroundImageFix" result="effect1_dropShadow_2_1612"/>
<feColorMatrix in="SourceAlpha" type="matrix" values="0 0 0 0 0 0 0 0 0 0 0 0 0 0 0 0 0 0 127 0" result="hardAlpha"/>
<feOffset/>
<feGaussianBlur stdDeviation="4"/>
<feColorMatrix type="matrix" values="0 0 0 0 0.788235 0 0 0 0 0.0117647 0 0 0 0 0.0117647 0 0 0 0.25 0"/>
<feBlend mode="normal" in2="effect1_dropShadow_2_1612" result="effect2_dropShadow_2_1612"/>
<feColorMatrix in="SourceAlpha" type="matrix" values="0 0 0 0 0 0 0 0 0 0 0 0 0 0 0 0 0 0 127 0" result="hardAlpha"/>
<feOffset/>
<feGaussianBlur stdDeviation="2"/>
<feColorMatrix type="matrix" values="0 0 0 0 0.788235 0 0 0 0 0.0117647 0 0 0 0 0.0117647 0 0 0 0.25 0"/>
<feBlend mode="normal" in2="effect2_dropShadow_2_1612" result="effect3_dropShadow_2_1612"/>
<feBlend mode="normal" in="SourceGraphic" in2="effect3_dropShadow_2_1612" result="shape"/>
</filter>
<filter id="filter3_d_2_1612" x="511" y="354.995" width="35.3334" height="38.011" filterUnits="userSpaceOnUse" color-interpolation-filters="sRGB">
<feFlood flood-opacity="0" result="BackgroundImageFix"/>
<feColorMatrix in="SourceAlpha" type="matrix" values="0 0 0 0 0 0 0 0 0 0 0 0 0 0 0 0 0 0 127 0" result="hardAlpha"/>
<feOffset/>
<feGaussianBlur stdDeviation="6"/>
<feColorMatrix type="matrix" values="0 0 0 0 0.788235 0 0 0 0 0.0117647 0 0 0 0 0.0117647 0 0 0 1 0"/>
<feBlend mode="normal" in2="BackgroundImageFix" result="effect1_dropShadow_2_1612"/>
<feBlend mode="normal" in="SourceGraphic" in2="effect1_dropShadow_2_1612" result="shape"/>
</filter>
<filter id="filter4_d_2_1612" x="535.667" y="354.995" width="35.3334" height="38.011" filterUnits="userSpaceOnUse" color-interpolation-filters="sRGB">
<feFlood flood-opacity="0" result="BackgroundImageFix"/>
<feColorMatrix in="SourceAlpha" type="matrix" values="0 0 0 0 0 0 0 0 0 0 0 0 0 0 0 0 0 0 127 0" result="hardAlpha"/>
<feOffset/>
<feGaussianBlur stdDeviation="6"/>
<feColorMatrix type="matrix" values="0 0 0 0 0.788235 0 0 0 0 0.0117647 0 0 0 0 0.0117647 0 0 0 1 0"/>
<feBlend mode="normal" in2="BackgroundImageFix" result="effect1_dropShadow_2_1612"/>
<feBlend mode="normal" in="SourceGraphic" in2="effect1_dropShadow_2_1612" result="shape"/>
</filter>
<filter id="filter5_d_2_1612" x="309" y="251" width="26" height="22" filterUnits="userSpaceOnUse" color-interpolation-filters="sRGB">
<feFlood flood-opacity="0" result="BackgroundImageFix"/>
<feColorMatrix in="SourceAlpha" type="matrix" values="0 0 0 0 0 0 0 0 0 0 0 0 0 0 0 0 0 0 127 0" result="hardAlpha"/>
<feOffset/>
<feGaussianBlur stdDeviation="2"/>
<feColorMatrix type="matrix" values="0 0 0 0 0.486275 0 0 0 0 0.0901961 0 0 0 0 0.0941176 0 0 0 1 0"/>
<feBlend mode="normal" in2="BackgroundImageFix" result="effect1_dropShadow_2_1612"/>
<feBlend mode="normal" in="SourceGraphic" in2="effect1_dropShadow_2_1612" result="shape"/>
</filter>
<filter id="filter6_d_2_1612" x="282" y="246" width="30" height="60" filterUnits="userSpaceOnUse" color-interpolation-filters="sRGB">
<feFlood flood-opacity="0" result="BackgroundImageFix"/>
<feColorMatrix in="SourceAlpha" type="matrix" values="0 0 0 0 0 0 0 0 0 0 0 0 0 0 0 0 0 0 127 0" result="hardAlpha"/>
<feOffset/>
<feGaussianBlur stdDeviation="6"/>
<feColorMatrix type="matrix" values="0 0 0 0 0.788235 0 0 0 0 0.0117647 0 0 0 0 0.0117647 0 0 0 1 0"/>
<feBlend mode="normal" in2="BackgroundImageFix" result="effect1_dropShadow_2_1612"/>
<feBlend mode="normal" in="SourceGraphic" in2="effect1_dropShadow_2_1612" result="shape"/>
</filter>
<filter id="filter7_d_2_1612" x="526" y="246" width="30" height="60" filterUnits="userSpaceOnUse" color-interpolation-filters="sRGB">
<feFlood flood-opacity="0" result="BackgroundImageFix"/>
<feColorMatrix in="SourceAlpha" type="matrix" values="0 0 0 0 0 0 0 0 0 0 0 0 0 0 0 0 0 0 127 0" result="hardAlpha"/>
<feOffset/>
<feGaussianBlur stdDeviation="6"/>
<feColorMatrix type="matrix" values="0 0 0 0 0.788235 0 0 0 0 0.0117647 0 0 0 0 0.0117647 0 0 0 1 0"/>
<feBlend mode="normal" in2="BackgroundImageFix" result="effect1_dropShadow_2_1612"/>
<feBlend mode="normal" in="SourceGraphic" in2="effect1_dropShadow_2_1612" result="shape"/>
</filter>
<filter id="filter8_d_2_1612" x="390" y="254" width="30" height="44" filterUnits="userSpaceOnUse" color-interpolation-filters="sRGB">
<feFlood flood-opacity="0" result="BackgroundImageFix"/>
<feColorMatrix in="SourceAlpha" type="matrix" values="0 0 0 0 0 0 0 0 0 0 0 0 0 0 0 0 0 0 127 0" result="hardAlpha"/>
<feOffset/>
<feGaussianBlur stdDeviation="6"/>
<feColorMatrix type="matrix" values="0 0 0 0 0.788235 0 0 0 0 0.0117647 0 0 0 0 0.0117647 0 0 0 1 0"/>
<feBlend mode="normal" in2="BackgroundImageFix" result="effect1_dropShadow_2_1612"/>
<feBlend mode="normal" in="SourceGraphic" in2="effect1_dropShadow_2_1612" result="shape"/>
</filter>
<filter id="filter9_d_2_1612" x="552" y="254" width="30" height="44" filterUnits="userSpaceOnUse" color-interpolation-filters="sRGB">
<feFlood flood-opacity="0" result="BackgroundImageFix"/>
<feColorMatrix in="SourceAlpha" type="matrix" values="0 0 0 0 0 0 0 0 0 0 0 0 0 0 0 0 0 0 127 0" result="hardAlpha"/>
<feOffset/>
<feGaussianBlur stdDeviation="6"/>
<feColorMatrix type="matrix" values="0 0 0 0 0.788235 0 0 0 0 0.0117647 0 0 0 0 0.0117647 0 0 0 1 0"/>
<feBlend mode="normal" in2="BackgroundImageFix" result="effect1_dropShadow_2_1612"/>
<feBlend mode="normal" in="SourceGraphic" in2="effect1_dropShadow_2_1612" result="shape"/>
</filter>
<linearGradient id="paint0_linear_2_1612" x1="521.48" y1="380" x2="529" y2="380" gradientUnits="userSpaceOnUse">
<stop stop-color="#F30000"/>
<stop offset="1" stop-color="#F00000"/>
</linearGradient>
<linearGradient id="paint1_linear_2_1612" x1="560.52" y1="368" x2="553" y2="368" gradientUnits="userSpaceOnUse">
<stop stop-color="#F30000"/>
<stop offset="1" stop-color="#F00000"/>
</linearGradient>
<linearGradient id="paint2_linear_2_1612" x1="295.12" y1="292" x2="297" y2="292" gradientUnits="userSpaceOnUse">
<stop stop-color="#F30000"/>
<stop offset="1" stop-color="#F00000"/>
</linearGradient>
<linearGradient id="paint3_linear_2_1612" x1="539.12" y1="292" x2="541" y2="292" gradientUnits="userSpaceOnUse">
<stop stop-color="#F30000"/>
<stop offset="1" stop-color="#F00000"/>
</linearGradient>
<linearGradient id="paint4_linear_2_1612" x1="403.12" y1="284" x2="405" y2="284" gradientUnits="userSpaceOnUse">
<stop stop-color="#F30000"/>
<stop offset="1" stop-color="#F00000"/>
</linearGradient>
<linearGradient id="paint5_linear_2_1612" x1="565.12" y1="284" x2="567" y2="284" gradientUnits="userSpaceOnUse">
<stop stop-color="#F30000"/>
<stop offset="1" stop-color="#F00000"/>
</linearGradient>
</defs>
</svg>
