<svg width="943" height="120" viewBox="0 0 943 120" fill="none" xmlns="http://www.w3.org/2000/svg">
<rect x="1" y="33" width="941" height="62" rx="7" fill="#F56464" stroke="#FF9A9A" stroke-width="2"/>
<path d="M472 34H935C938.314 34 941 36.6863 941 40V88C941 91.3137 938.314 94 935 94H472V34Z" fill="#B12020"/>
<path d="M408 34H472V94H408V34Z" fill="#E84444"/>
<path d="M396 34H408V94H396V34Z" fill="#FF9A9A"/>
<g style="mix-blend-mode:screen">
<rect x="16" y="8" width="2" height="112" fill="#E23737"/>
</g>
<g style="mix-blend-mode:screen">
<rect x="312" y="8" width="2" height="112" fill="#E23737"/>
</g>
<g style="mix-blend-mode:screen">
<rect x="666" y="8" width="2" height="112" fill="#E23737"/>
</g>
<g style="mix-blend-mode:screen">
<rect x="168" y="34" width="2" height="86" fill="#E23737"/>
</g>
<g style="mix-blend-mode:screen">
<rect x="230" y="34" width="2" height="86" fill="#E23737"/>
</g>
<g style="mix-blend-mode:screen">
<rect x="346" y="34" width="2" height="86" fill="#E23737"/>
</g>
<g style="mix-blend-mode:screen">
<rect x="632" y="34" width="2" height="86" fill="#E23737"/>
</g>
<g style="mix-blend-mode:screen">
<rect x="769" y="34" width="2" height="86" fill="#E23737"/>
</g>
<g style="mix-blend-mode:screen">
<rect x="827" y="34" width="2" height="86" fill="#E23737"/>
</g>
<g style="mix-blend-mode:screen">
<rect x="861" y="34" width="2" height="86" fill="#E23737"/>
</g>
<g style="mix-blend-mode:screen">
<rect x="182" y="16" width="16" height="88" rx="2" fill="#B12020"/>
</g>
<g style="mix-blend-mode:screen">
<rect x="458" width="12" height="112" rx="2" fill="#B12020"/>
</g>
<g style="mix-blend-mode:screen">
<rect x="922" y="8" width="2" height="112" fill="#EB3838"/>
</g>
<path d="M32.152 15.224V17.312L30.488 17.328L28.272 21.208H32.688L31.608 23H25.248L29.528 15.224H32.152ZM37.576 15.2V23H36.096V17.16L34.52 18.728L33.376 17.576C33.36 17.5333 33.3813 17.4907 33.44 17.448L35.648 15.2H37.576ZM40.5753 21.496L40.7673 21.48L44.0393 15.224H46.0953L50.4473 23H48.4313L45.0873 16.856L41.8393 23H39.8393L39.7193 22.992L39.5193 22.704L39.3353 22.392L39.0872 21.96L38.8713 21.464L38.6633 20.944L38.5433 20.344L38.4153 19.664L38.3673 18.96L38.4153 18.256L38.4793 17.616L38.6073 16.992L38.7433 16.52L38.9593 16.088L39.1673 15.712L39.4153 15.4L39.5593 15.24H41.0393L40.7833 15.488L40.5753 15.792L40.3673 16.168L40.2073 16.536L40.0633 16.992L39.9353 17.592L39.8313 18.256L39.7913 18.92L39.8313 19.584L39.9593 20.288L40.1193 20.824L40.2873 21.152L40.5753 21.496Z" fill="#F97D7D"/>
<path d="M328.152 15.224V17.312L326.488 17.328L324.272 21.208H328.688L327.608 23H321.248L325.528 15.224H328.152ZM340.84 15.216V17.008H339.648V23H338.032V17.008H337.808L334.96 23H332.888L329.152 15.216H331.16L333.944 20.784L336.64 15.216H340.84ZM351.278 15.224L344.75 23H342.486L347.286 17.24V17.104H341.526L342.934 15.224H351.278Z" fill="#F97D7D"/>
<path d="M687.312 15.2V16.992H675.2V15.2H687.312ZM677.28 18.192H685.232V19.984H677.28V18.192ZM675.2 21.2H687.312V23H675.2V21.2ZM699.115 15.2L699.091 15.336L694.907 23H688.09V15.2H689.555V21.2H694.043L696.283 16.864V16.816H692.539V17.288H691.051V15.2H699.115ZM701.995 15.28H709.595L711.827 17.8V18.208H709.859L708.963 17.016H702.659L701.723 18.208H699.763V17.8L701.995 15.28ZM703.363 18.184H708.427V20.04H703.363V18.184ZM699.739 20.256H701.707L702.627 21.288H708.947L709.851 20.272H711.811V20.632L709.579 23.008H701.971L699.739 20.632V20.256Z" fill="#F97D7D"/>
<path opacity="0.5" d="M898.12 15.256V23.008H888.688L888.288 22.608V20.464H890.36V21.2H896.328V18.52H892.616L891.432 19.728H888.728L891.704 16.752H896.328V15.256H898.12ZM910.656 15.2V16.992H898.544V15.2H910.656ZM900.624 18.192H908.576V19.984H900.624V18.192ZM898.544 21.2H910.656V23H898.544V21.2Z" fill="#FF2606"/>
<g style="mix-blend-mode:screen">
<path d="M923 34V32.9367L921.939 33.0019L17.9387 88.5019L17 88.5595V89.5V94V95H18H922H923V94V34Z" fill="#F56464"/>
<path d="M923 34V32.9367L921.939 33.0019L17.9387 88.5019L17 88.5595V89.5V94V95H18H922H923V94V34Z" stroke="#FF9A9A" stroke-width="2"/>
</g>
<g style="mix-blend-mode:screen">
<rect x="470" y="34" width="2" height="86" fill="#E23737"/>
</g>
</svg>
