<svg width="688" height="211" viewBox="0 0 688 211" fill="none" xmlns="http://www.w3.org/2000/svg">
<rect x="468" y="202.986" width="8" height="8" rx="1" fill="#FB6666"/>
<rect x="484" y="202.986" width="8" height="8" rx="1" fill="#FB6666"/>
<path d="M0.456 3.39457H3.156V11.4106H0.456V3.39457ZM4.02 6.97057H6.684V11.4106H4.02V6.97057ZM7.548 6.97057H10.248V14.9866H7.548V6.97057ZM11.3444 3.32257H14.0564V5.61457H21.3884L25.1324 3.32257H30.5804L21.3884 8.31457H11.3444V3.32257ZM11.3444 9.99457H21.6884L30.7004 14.9866H25.6004L21.1844 12.6946H14.0204V14.9866H11.3444V9.99457ZM42.8856 3.32257L51.7536 12.2146V3.32257H54.2496V14.9866H50.8296L39.1536 3.32257H42.8856ZM38.1816 9.44257L47.2536 12.7306L46.4496 14.9866L37.3416 11.7586L38.1816 9.44257ZM60.6278 3.32257L69.4958 12.2146V3.32257H71.9918V14.9866H68.5718L56.8958 3.32257H60.6278ZM55.9238 9.44257L64.9958 12.7306L64.1918 14.9866L55.0838 11.7586L55.9238 9.44257Z" fill="#FFBFBF"/>
<path d="M227.567 162.817C228.448 164.482 227.241 166.487 225.357 166.487L78.643 166.486C76.7591 166.486 75.5521 164.482 76.4334 162.817L120.895 78.817C121.328 77.9985 122.178 77.4865 123.104 77.4865L180.896 77.4865C181.822 77.4865 182.672 77.9985 183.105 78.817L227.567 162.817Z" fill="#B12020" stroke="#FF9A9A" stroke-width="3"/>
<path d="M183.962 162.785C184.875 164.451 183.669 166.487 181.769 166.487L123.274 166.487C121.374 166.487 120.168 164.451 121.081 162.785L138.612 130.785C139.05 129.984 139.891 129.487 140.804 129.487L164.239 129.487C165.152 129.487 165.993 129.984 166.431 130.785L183.962 162.785Z" fill="#F45353" stroke="#FF9A9A" stroke-width="3"/>
<path d="M532.433 162.817C531.552 164.482 532.759 166.487 534.643 166.487L681.357 166.486C683.241 166.486 684.448 164.482 683.567 162.817L639.105 78.817C638.672 77.9985 637.822 77.4865 636.896 77.4865L579.104 77.4865C578.178 77.4865 577.328 77.9985 576.895 78.817L532.433 162.817Z" stroke="#FF9A9A" stroke-width="3"/>
<path d="M204.433 81.1558C203.552 79.4908 204.759 77.4862 206.643 77.4862L353.357 77.4863C355.241 77.4863 356.448 79.4908 355.567 81.1558L311.105 165.156C310.672 165.974 309.822 166.486 308.896 166.486L251.104 166.486C250.178 166.486 249.328 165.974 248.895 165.156L204.433 81.1558Z" fill="#FB6666" stroke="#FF9A9A" stroke-width="3"/>
<path d="M4.44229 81.1583C3.55878 79.4932 4.7657 77.4865 6.65067 77.4865H97.3493C99.2343 77.4865 100.441 79.4932 99.5577 81.1583L74.0883 129.158C73.6547 129.976 72.8051 130.487 71.8799 130.487H32.1201C31.1949 130.487 30.3453 129.976 29.9117 129.158L4.44229 81.1583Z" fill="#EB3838" stroke="#EB3838" stroke-width="3"/>
<path d="M427.558 162.814C428.441 164.48 427.234 166.486 425.349 166.486L334.651 166.486C332.766 166.486 331.559 164.48 332.442 162.814L357.912 114.814C358.345 113.997 359.195 113.486 360.12 113.486L399.88 113.486C400.805 113.486 401.655 113.997 402.088 114.814L427.558 162.814Z" fill="#B12020" stroke="#FF9A9A" stroke-width="3"/>
<path d="M14 157.486L20.3174 157.486C22.3399 157.486 23.5253 159.763 22.3655 161.42L16.0481 170.445C15.0528 171.867 12.9472 171.867 11.9519 170.445L5.63454 161.42C4.47468 159.763 5.66007 157.486 7.68262 157.486L14 157.486Z" fill="#EB3838" stroke="#EB3838" stroke-width="3"/>
<path d="M34 172.986H27.6826C24.4465 172.986 22.5499 169.344 24.4057 166.692L30.7231 157.668C32.3155 155.393 35.6845 155.393 37.2769 157.668L43.5943 166.692C45.4501 169.344 43.5535 172.986 40.3174 172.986H34Z" fill="#F45353"/>
<path d="M14.304 26.448V30.624L10.976 30.656L6.544 38.416H15.376L13.216 42H0.496L9.056 26.448H14.304ZM16.704 26.448H20.32V29.504H30.096L35.088 26.448H42.352L30.096 33.104H16.704V26.448ZM16.704 35.344H30.496L42.512 42H35.712L29.824 38.944H20.272V42H16.704V35.344ZM52.1208 26.4V42H49.1608V30.32L46.0088 33.456L43.7208 31.152C43.6888 31.0667 43.7314 30.9813 43.8488 30.896L48.2648 26.4H52.1208ZM58.1193 38.992L58.5033 38.96L65.0473 26.448H69.1593L77.8633 42H73.8313L67.1433 29.712L60.6473 42H56.6473L56.4073 41.984L56.0073 41.408L55.6393 40.784L55.1432 39.92L54.7113 38.928L54.2953 37.888L54.0553 36.688L53.7993 35.328L53.7033 33.92L53.7993 32.512L53.9273 31.232L54.1833 29.984L54.4553 29.04L54.8873 28.176L55.3033 27.424L55.7993 26.8L56.0873 26.48H59.0473L58.5353 26.976L58.1193 27.584L57.7033 28.336L57.3833 29.072L57.0953 29.984L56.8393 31.184L56.6313 32.512L56.5513 33.84L56.6313 35.168L56.8873 36.576L57.2073 37.648L57.5433 38.304L58.1193 38.992ZM106.822 26.448L93.7659 42H89.2379L98.8379 30.48V30.208H87.3179L90.1339 26.448H106.822ZM130.93 26.432V30.016H128.546V42H125.314V30.016H124.866L119.17 42H115.026L107.554 26.432H111.57L117.138 37.568L122.53 26.432H130.93ZM132.11 26.448H135.726V29.504H145.502L150.494 26.448H157.758L145.502 33.104H132.11V26.448ZM132.11 35.344H145.902L157.918 42H151.118L145.23 38.944H135.678V42H132.11V35.344ZM158.983 26.544H162.583V37.232H158.983V26.544ZM163.735 31.312H167.287V37.232H163.735V31.312ZM168.439 31.312H172.039V42H168.439V31.312ZM189.373 26.448L194.669 38.816L192.557 42H175.485L173.293 38.768L178.397 26.448H189.373ZM177.005 38.592H190.941L187.325 30.032H180.589L177.005 38.592ZM215.4 26.448L202.344 42H197.816L207.416 30.48V30.208H195.896L198.712 26.448H215.4Z" fill="#FFBFBF"/>
</svg>
